<svg xmlns="http://www.w3.org/2000/svg" width="39.862mm" height="58.305mm" viewBox="0 0 112.995 165.275"><defs><style>.a{fill:#edeced;}.b{fill:#754b3f;}.c{fill:#583328;}.d{fill:#bcb2a4;}.e{fill:#b0967e;}.f{fill:#9f8f86;}</style></defs><title>chair</title><polygon class="a" points="50.879 103.373 0 132.75 50.879 162.126 65.078 165.275 65.078 160.667 57.693 158.191 96.487 135.792 96.462 135.976 110.665 139.121 110.665 134.517 97.298 130.037 97.281 130.164 50.879 103.373"/><polygon class="b" points="65.078 116.481 65.078 165.273 67.816 164.066 67.816 115.489 65.078 116.481"/><polygon class="c" points="58.387 114.516 65.077 116.694 65.077 165.275 61.939 163.461 58.387 114.516"/><polygon class="b" points="110.257 90.329 110.257 139.122 112.995 137.914 112.995 89.337 110.257 90.329"/><polygon class="c" points="103.563 88.365 110.257 90.543 110.257 139.123 107.115 137.31 103.563 88.365"/><polygon class="c" points="22.749 140.836 20.096 139.178 19.901 97.147 25.582 100.427 22.749 140.836"/><polygon class="b" points="25.25 139.895 22.75 140.837 25.58 100.425 28.08 99.486 25.25 139.895"/><polygon class="d" points="26.792 88.792 15.976 29.693 15.235 28.662 10.471 27.373 19.903 97.148 65.076 123.23 65.076 112.094 64.138 110.323 26.792 88.792"/><polygon class="e" points="112.994 95.856 65.076 123.231 65.076 112.095 112.994 84.72 112.994 95.856"/><polygon class="e" points="112.053 82.948 64.138 110.323 65.077 112.094 112.995 84.722 112.053 82.948"/><polygon class="f" points="74.707 61.419 26.792 88.791 64.138 110.322 112.052 82.947 74.707 61.419"/><polygon class="e" points="74.707 61.419 26.792 88.791 15.976 29.691 63.89 2.316 74.707 61.419"/><polygon class="f" points="58.387 0 10.473 27.372 15.233 28.661 63.147 1.286 58.387 0"/><polygon class="e" points="63.89 2.318 15.976 29.693 15.232 28.659 63.146 1.288 63.89 2.318"/></svg>